<svg xmlns="http://www.w3.org/2000/svg" viewBox="0 0 500 500"><defs><style>.cls-1{fill:#ba0837;}.cls-2{fill:#fff;}</style></defs><title>jm_logo</title><g id="Layer_2" data-name="Layer 2"><g id="logo"><rect class="cls-1" width="500" height="500"/><path class="cls-2" d="M116.27,287.32H66.56a2.75,2.75,0,0,1-2.65-2.84V237.16a2.75,2.75,0,0,1,2.65-2.84h49.71a2.75,2.75,0,0,1,2.65,2.84v47.32A2.75,2.75,0,0,1,116.27,287.32Zm72.57-114.23H140.19a3,3,0,0,0-3,3c0,21,0,146.17,0,153.21,0,.67-.14,3-.14,3-.81,13.9-11.37,25.41-25.41,25.41A25.41,25.41,0,0,1,86.7,337a3,3,0,0,0-3-2.41H40.38a3.07,3.07,0,0,0-3,3.33c2.28,29.23,33.93,65.89,76.78,65.89,51.49,0,77.76-46.15,77.76-76.91,0-4.19,0-129.54,0-150.78A3,3,0,0,0,188.84,173.09Zm219.73.32c-29.26,0-45,17.62-50.86,26.07a3,3,0,0,1-5.05-.22c-4.92-8.5-18.09-25.74-44.06-25.74-23.94,0-34.59,11.09-40.37,19.93a3,3,0,0,1-5.52-1.62V176.41a3,3,0,0,0-3-3H211.86a3,3,0,0,0-3,3V324.23a3,3,0,0,0,3,3H259.7a3,3,0,0,0,3-3V266c0-1.33-.12-7.41,0-8.63.86-12.69,10.31-23,23-23a22.67,22.67,0,0,1,23,22.61c0,1.23.12,8.71.12,8.71v58.53a3,3,0,0,0,3,3h47.84a3,3,0,0,0,3-3V265.7s0-6.6,0-8.31a22.73,22.73,0,0,1,22.7-23c12.72,0,23.43,10.29,23.43,23,0,.87,0,8.31,0,8.31v58.53a3,3,0,0,0,3,3h47.84a3,3,0,0,0,3-3v-97C462.66,208.93,443.31,173.41,408.56,173.41Z"/></g></g></svg>