<svg xmlns="http://www.w3.org/2000/svg" xmlns:xlink="http://www.w3.org/1999/xlink" viewBox="0 0 500 500"><defs><style>.cls-1{isolation:isolate;}.cls-2{fill:#ce5252;}.cls-3{opacity:0.13;mix-blend-mode:multiply;fill:url(#linear-gradient);}.cls-4{fill:#fff;}</style><linearGradient id="linear-gradient" x1="530.22" y1="416.98" x2="81.58" y2="253.69" gradientUnits="userSpaceOnUse"><stop offset="0" stop-color="#fff"/><stop offset="0.07" stop-color="#e6e6e6"/><stop offset="0.3" stop-color="#969696"/><stop offset="0.5" stop-color="#555"/><stop offset="0.67" stop-color="#272727"/><stop offset="0.8" stop-color="#0b0b0b"/><stop offset="0.88"/></linearGradient></defs><title>jm_logo</title><g class="cls-1"><g id="Layer_2" data-name="Layer 2"><g id="logo"><rect class="cls-2" width="500" height="500"/><path class="cls-3" d="M408.5,187.28h0A41.56,41.56,0,0,0,379,175c-21.81,0-33.48,13.12-38.54,20.3a2.49,2.49,0,0,1-4.1-.06c-5-7.46-16.81-20.16-39.53-20.16-14.46,0-24.25,5.14-30.7,10.82l-10.68-10.14-.07-.07-.1-.1h0a2.47,2.47,0,0,0-1.6-.6H213.8a2.49,2.49,0,0,0-2.49,2.49V197.2l-23.13-21.61,0,.11a2.48,2.48,0,0,0-1.73-.7H146.57a2.49,2.49,0,0,0-2.49,2.49V286.93l-23.14-21.56a2.48,2.48,0,0,0-1.76-.73H79.34a2.49,2.49,0,0,0-2.49,2.49V307a2.48,2.48,0,0,0,.73,1.76l29.64,28.19a3.2,3.2,0,0,0-.49,1.64v33.23a2.06,2.06,0,0,0,.49,1.34v.17L237.33,500H500V262.6Z"/><path class="cls-4" d="M379,175c-21.81,0-33.48,13.12-38.54,20.3a2.49,2.49,0,0,1-4.1-.06c-5-7.46-16.81-20.16-39.53-20.16-19.43,0-30.42,9.29-36.22,16.66a2.49,2.49,0,0,1-4.45-1.53V177.49a2.49,2.49,0,0,0-2.49-2.49H213.8a2.49,2.49,0,0,0-2.49,2.49V307a2.49,2.49,0,0,0,2.49,2.49h39.84a2.49,2.49,0,0,0,2.49-2.49s-.09-61.34,0-62.3c.68-10,5-21.51,19.12-21.51,12.45,0,18.26,11.13,18.26,21.17V307a2.49,2.49,0,0,0,2.49,2.49h39.84A2.49,2.49,0,0,0,338.3,307V244.89c0-10,5-21.73,18.26-21.73,12.45,0,19.09,11.68,19.09,21.73V307a2.49,2.49,0,0,0,2.49,2.49H418a2.49,2.49,0,0,0,2.49-2.49V210.69C420.47,199.07,405.53,175,379,175Z"/><g id="_Group_" data-name="&lt;Group&gt;"><path class="cls-4" d="M144.08,309.46v-132a2.49,2.49,0,0,1,2.49-2.49h39.84a2.49,2.49,0,0,1,2.49,2.49v132c0,26.79-22.4,66.4-67.23,66.4-7,0-10.95-.75-12.85-1.61-1.12-.5-2.09-1.23-2.09-2.46V338.56a3.11,3.11,0,0,1,3.26-3.09c5.23.32,8.83.6,11.7.1C136.82,332.94,144.08,323.2,144.08,309.46Z"/></g><rect class="cls-4" x="76.85" y="264.64" width="44.82" height="44.82" rx="3" ry="3"/><path class="cls-4" d="M69.38,227.29"/></g></g></g></svg>